<svg width="223" height="309" viewBox="0 0 223 309" fill="none" xmlns="http://www.w3.org/2000/svg">
<path d="M-57.7503 172.293L48.014 172.293L48.014 279.649C48.014 295.822 61.1099 309 77.3302 309L193.066 309C209.22 309 222.382 295.888 222.382 279.649L222.382 221.944L177.244 221.944L177.244 263.808L93.2181 263.808L93.2181 46.0353L130.312 46.0353L130.312 0.843467L48.0805 0.84346L48.0805 127.101L-41.8623 127.101L-41.8623 46.0353L3.14228 46.0353L3.14228 0.843456L-57.6837 0.843451C-73.8376 0.843449 -87 13.9551 -87 30.1949L-87 142.942C-87 159.115 -73.9041 172.293 -57.7503 172.293Z" fill="#247CFF"/>
</svg>
